<svg width="523" height="509" xmlns="http://www.w3.org/2000/svg" xmlns:xlink="http://www.w3.org/1999/xlink" xml:space="preserve" overflow="hidden"><g transform="translate(-3235 -577)"><g><path d="M3247 718 3745.9 718" stroke="#D1D1D1" stroke-width="19.9079" stroke-linecap="butt" stroke-linejoin="miter" stroke-miterlimit="8" stroke-opacity="1" fill="none" fill-rule="evenodd"/><path d="M3247 620.084C3247 602.365 3261.36 588 3279.08 588L3712.92 588C3730.64 588 3745 602.365 3745 620.084L3745 1042.92C3745 1060.64 3730.64 1075 3712.92 1075L3279.08 1075C3261.36 1075 3247 1060.64 3247 1042.92Z" stroke="#AEAEAE" stroke-width="19.9079" stroke-linecap="butt" stroke-linejoin="miter" stroke-miterlimit="8" stroke-opacity="1" fill="none" fill-rule="evenodd"/><path d="M0 0 10.8242 38.094" stroke="#7F7F7F" stroke-width="5.72917" stroke-linecap="round" stroke-linejoin="miter" stroke-miterlimit="8" stroke-opacity="1" fill="none" fill-rule="evenodd" transform="matrix(1 0 0 -1 3301 670.094)"/><path d="M3328.01 657.86 3312 632" stroke="#7F7F7F" stroke-width="5.72917" stroke-linecap="round" stroke-linejoin="miter" stroke-miterlimit="8" stroke-opacity="1" fill="none" fill-rule="evenodd"/><path d="M0 0 16.0103 12.2335" stroke="#7F7F7F" stroke-width="5.72917" stroke-linecap="round" stroke-linejoin="miter" stroke-miterlimit="8" stroke-opacity="1" fill="none" fill-rule="evenodd" transform="matrix(-1 0 0 1 3344.01 646)"/><path d="M3354.82 670.467 3344 646" stroke="#7F7F7F" stroke-width="5.72917" stroke-linecap="round" stroke-linejoin="miter" stroke-miterlimit="8" stroke-opacity="1" fill="none" fill-rule="evenodd"/><path d="M0 0 16.0103 12.2335" stroke="#7F7F7F" stroke-width="5.72917" stroke-linecap="round" stroke-linejoin="miter" stroke-miterlimit="8" stroke-opacity="1" fill="none" fill-rule="evenodd" transform="matrix(-1 0 0 1 3371.01 658)"/><path d="M0 0 5.18638 25.8601" stroke="#7F7F7F" stroke-width="5.72917" stroke-linecap="round" stroke-linejoin="miter" stroke-miterlimit="8" stroke-opacity="1" fill="none" fill-rule="evenodd" transform="matrix(-1 0 0 1 3376.19 632)"/><path d="M3386.82 671.488 3376 632" stroke="#7F7F7F" stroke-width="5.72917" stroke-linecap="round" stroke-linejoin="miter" stroke-miterlimit="8" stroke-opacity="1" fill="none" fill-rule="evenodd"/><path d="M0 0 10.8242 38.094" stroke="#7F7F7F" stroke-width="5.72917" stroke-linecap="round" stroke-linejoin="miter" stroke-miterlimit="8" stroke-opacity="1" fill="none" fill-rule="evenodd" transform="matrix(1 0 0 -1 3397 672.094)"/><path d="M3431.23 670.7 3408 634" stroke="#7F7F7F" stroke-width="5.72917" stroke-linecap="round" stroke-linejoin="miter" stroke-miterlimit="8" stroke-opacity="1" fill="none" fill-rule="evenodd"/><path d="M0 0 8.79423 23.0733" stroke="#7F7F7F" stroke-width="5.72917" stroke-linecap="round" stroke-linejoin="miter" stroke-miterlimit="8" stroke-opacity="1" fill="none" fill-rule="evenodd" transform="matrix(-1 0 0 1 3440.79 647)"/><path d="M3451.95 657.84 3440 647" stroke="#7F7F7F" stroke-width="5.72917" stroke-linecap="round" stroke-linejoin="miter" stroke-miterlimit="8" stroke-opacity="1" fill="none" fill-rule="evenodd"/><path d="M0 0 11.5009 7.28425" stroke="#7F7F7F" stroke-width="5.72917" stroke-linecap="round" stroke-linejoin="miter" stroke-miterlimit="8" stroke-opacity="1" fill="none" fill-rule="evenodd" transform="matrix(-1 0 0 1 3470.5 664)"/><path d="M3490.7 673.254 3481 646" stroke="#7F7F7F" stroke-width="5.72917" stroke-linecap="round" stroke-linejoin="miter" stroke-miterlimit="8" stroke-opacity="1" fill="none" fill-rule="evenodd"/><path d="M0 0 10.8242 17.1824" stroke="#7F7F7F" stroke-width="5.72917" stroke-linecap="round" stroke-linejoin="miter" stroke-miterlimit="8" stroke-opacity="1" fill="none" fill-rule="evenodd" transform="matrix(-1 0 0 1 3480.82 647)"/><path d="M0 0 10.8242 38.094" stroke="#7F7F7F" stroke-width="5.72917" stroke-linecap="round" stroke-linejoin="miter" stroke-miterlimit="8" stroke-opacity="1" fill="none" fill-rule="evenodd" transform="matrix(1 0 0 -1 3501 673.094)"/><path d="M3528.01 660.86 3512 635" stroke="#7F7F7F" stroke-width="5.72917" stroke-linecap="round" stroke-linejoin="miter" stroke-miterlimit="8" stroke-opacity="1" fill="none" fill-rule="evenodd"/><path d="M0 0 16.0103 12.2335" stroke="#7F7F7F" stroke-width="5.72917" stroke-linecap="round" stroke-linejoin="miter" stroke-miterlimit="8" stroke-opacity="1" fill="none" fill-rule="evenodd" transform="matrix(-1 0 0 1 3544.01 649)"/><path d="M3554.82 673.467 3544 649" stroke="#7F7F7F" stroke-width="5.72917" stroke-linecap="round" stroke-linejoin="miter" stroke-miterlimit="8" stroke-opacity="1" fill="none" fill-rule="evenodd"/><path d="M3628.5 652C3628.5 635.708 3641.71 622.5 3658 622.5 3674.29 622.5 3687.5 635.708 3687.5 652 3687.5 668.293 3674.29 681.5 3658 681.5 3641.71 681.5 3628.5 668.293 3628.5 652Z" stroke="#D1D1D1" stroke-width="9.16667" stroke-linecap="butt" stroke-linejoin="miter" stroke-miterlimit="8" stroke-opacity="1" fill="none" fill-rule="evenodd"/><text fill="#AEAEAE" fill-opacity="1" font-family="Aptos,Aptos_MSFontService,sans-serif" font-style="normal" font-variant="normal" font-weight="400" font-stretch="normal" font-size="48" text-anchor="start" direction="ltr" writing-mode="lr-tb" unicode-bidi="normal" text-decoration="none" transform="matrix(1 0 0 1 3645.72 665)">3</text><path d="M3301 787C3301 779.268 3307.27 773 3315 773L3315 773C3322.73 773 3329 779.268 3329 787L3329 818C3329 825.732 3322.73 832 3315 832L3315 832C3307.27 832 3301 825.732 3301 818Z" fill="#29A745" fill-rule="evenodd" fill-opacity="1"/><path d="M3301 887C3301 879.268 3307.27 873 3315 873L3315 873C3322.73 873 3329 879.268 3329 887L3329 918C3329 925.732 3322.73 932 3315 932L3315 932C3307.27 932 3301 925.732 3301 918Z" fill="#007BFE" fill-rule="evenodd" fill-opacity="1"/><path d="M3299 987C3299 979.268 3305.27 973 3313 973L3313 973C3320.73 973 3327 979.268 3327 987L3327 1018C3327 1025.73 3320.73 1032 3313 1032L3313 1032C3305.27 1032 3299 1025.73 3299 1018Z" fill="#FE7E14" fill-rule="evenodd" fill-opacity="1"/><rect x="3349" y="788" width="22" height="28.0002" fill="#747474" fill-opacity="1"/><rect x="3349" y="888" width="22" height="28.0002" fill="#747474" fill-opacity="1"/><rect x="3348" y="988" width="21" height="28.0002" fill="#747474" fill-opacity="1"/><path d="M0 0 10.8242 38.094" stroke="#7F7F7F" stroke-width="5.72917" stroke-linecap="round" stroke-linejoin="miter" stroke-miterlimit="8" stroke-opacity="1" fill="none" fill-rule="evenodd" transform="matrix(1 0 0 -1 3390 817.094)"/><path d="M3417.01 804.86 3401 779" stroke="#7F7F7F" stroke-width="5.72917" stroke-linecap="round" stroke-linejoin="miter" stroke-miterlimit="8" stroke-opacity="1" fill="none" fill-rule="evenodd"/><path d="M0 0 16.0103 12.2335" stroke="#7F7F7F" stroke-width="5.72917" stroke-linecap="round" stroke-linejoin="miter" stroke-miterlimit="8" stroke-opacity="1" fill="none" fill-rule="evenodd" transform="matrix(-1 0 0 1 3433.01 793)"/><path d="M3443.82 817.467 3433 793" stroke="#7F7F7F" stroke-width="5.72917" stroke-linecap="round" stroke-linejoin="miter" stroke-miterlimit="8" stroke-opacity="1" fill="none" fill-rule="evenodd"/><path d="M0 0 16.0103 12.2335" stroke="#7F7F7F" stroke-width="5.72917" stroke-linecap="round" stroke-linejoin="miter" stroke-miterlimit="8" stroke-opacity="1" fill="none" fill-rule="evenodd" transform="matrix(-1 0 0 1 3459.01 805)"/><path d="M0 0 5.18638 25.8601" stroke="#7F7F7F" stroke-width="5.72917" stroke-linecap="round" stroke-linejoin="miter" stroke-miterlimit="8" stroke-opacity="1" fill="none" fill-rule="evenodd" transform="matrix(-1 0 0 1 3464.19 779)"/><path d="M3475.82 818.487 3465 779" stroke="#7F7F7F" stroke-width="5.72917" stroke-linecap="round" stroke-linejoin="miter" stroke-miterlimit="8" stroke-opacity="1" fill="none" fill-rule="evenodd"/><path d="M0 0 10.8242 38.094" stroke="#7F7F7F" stroke-width="5.72917" stroke-linecap="round" stroke-linejoin="miter" stroke-miterlimit="8" stroke-opacity="1" fill="none" fill-rule="evenodd" transform="matrix(1 0 0 -1 3486 819.094)"/><path d="M3520.23 817.7 3497 781" stroke="#7F7F7F" stroke-width="5.72917" stroke-linecap="round" stroke-linejoin="miter" stroke-miterlimit="8" stroke-opacity="1" fill="none" fill-rule="evenodd"/><path d="M0 0 8.79423 23.0733" stroke="#7F7F7F" stroke-width="5.72917" stroke-linecap="round" stroke-linejoin="miter" stroke-miterlimit="8" stroke-opacity="1" fill="none" fill-rule="evenodd" transform="matrix(-1 0 0 1 3528.79 794)"/><path d="M3540.95 804.84 3529 794" stroke="#7F7F7F" stroke-width="5.72917" stroke-linecap="round" stroke-linejoin="miter" stroke-miterlimit="8" stroke-opacity="1" fill="none" fill-rule="evenodd"/><path d="M0 0 11.5009 7.28425" stroke="#7F7F7F" stroke-width="5.72917" stroke-linecap="round" stroke-linejoin="miter" stroke-miterlimit="8" stroke-opacity="1" fill="none" fill-rule="evenodd" transform="matrix(-1 0 0 1 3559.5 811)"/><path d="M3579.7 820.254 3570 793" stroke="#7F7F7F" stroke-width="5.72917" stroke-linecap="round" stroke-linejoin="miter" stroke-miterlimit="8" stroke-opacity="1" fill="none" fill-rule="evenodd"/><path d="M0 0 10.8242 17.1824" stroke="#7F7F7F" stroke-width="5.72917" stroke-linecap="round" stroke-linejoin="miter" stroke-miterlimit="8" stroke-opacity="1" fill="none" fill-rule="evenodd" transform="matrix(-1 0 0 1 3569.82 794)"/><path d="M0 0 10.8242 38.094" stroke="#7F7F7F" stroke-width="5.72917" stroke-linecap="round" stroke-linejoin="miter" stroke-miterlimit="8" stroke-opacity="1" fill="none" fill-rule="evenodd" transform="matrix(1 0 0 -1 3589 820.094)"/><path d="M3616.01 807.86 3600 782" stroke="#7F7F7F" stroke-width="5.72917" stroke-linecap="round" stroke-linejoin="miter" stroke-miterlimit="8" stroke-opacity="1" fill="none" fill-rule="evenodd"/><path d="M0 0 16.0103 12.2335" stroke="#7F7F7F" stroke-width="5.72917" stroke-linecap="round" stroke-linejoin="miter" stroke-miterlimit="8" stroke-opacity="1" fill="none" fill-rule="evenodd" transform="matrix(-1 0 0 1 3632.01 796)"/><path d="M3642.82 820.467 3632 796" stroke="#7F7F7F" stroke-width="5.72917" stroke-linecap="round" stroke-linejoin="miter" stroke-miterlimit="8" stroke-opacity="1" fill="none" fill-rule="evenodd"/><path d="M0 0 10.8242 38.094" stroke="#7F7F7F" stroke-width="5.72917" stroke-linecap="round" stroke-linejoin="miter" stroke-miterlimit="8" stroke-opacity="1" fill="none" fill-rule="evenodd" transform="matrix(1 0 0 -1 3390 924.094)"/><path d="M3417.01 911.86 3401 886" stroke="#7F7F7F" stroke-width="5.72917" stroke-linecap="round" stroke-linejoin="miter" stroke-miterlimit="8" stroke-opacity="1" fill="none" fill-rule="evenodd"/><path d="M0 0 16.0103 12.2335" stroke="#7F7F7F" stroke-width="5.72917" stroke-linecap="round" stroke-linejoin="miter" stroke-miterlimit="8" stroke-opacity="1" fill="none" fill-rule="evenodd" transform="matrix(-1 0 0 1 3433.01 899)"/><path d="M3443.82 923.467 3433 899" stroke="#7F7F7F" stroke-width="5.72917" stroke-linecap="round" stroke-linejoin="miter" stroke-miterlimit="8" stroke-opacity="1" fill="none" fill-rule="evenodd"/><path d="M0 0 16.0103 12.2335" stroke="#7F7F7F" stroke-width="5.72917" stroke-linecap="round" stroke-linejoin="miter" stroke-miterlimit="8" stroke-opacity="1" fill="none" fill-rule="evenodd" transform="matrix(-1 0 0 1 3459.01 911)"/><path d="M0 0 5.18638 25.8601" stroke="#7F7F7F" stroke-width="5.72917" stroke-linecap="round" stroke-linejoin="miter" stroke-miterlimit="8" stroke-opacity="1" fill="none" fill-rule="evenodd" transform="matrix(-1 0 0 1 3464.19 886)"/><path d="M3475.82 925.487 3465 886" stroke="#7F7F7F" stroke-width="5.72917" stroke-linecap="round" stroke-linejoin="miter" stroke-miterlimit="8" stroke-opacity="1" fill="none" fill-rule="evenodd"/><path d="M0 0 10.8242 38.094" stroke="#7F7F7F" stroke-width="5.72917" stroke-linecap="round" stroke-linejoin="miter" stroke-miterlimit="8" stroke-opacity="1" fill="none" fill-rule="evenodd" transform="matrix(1 0 0 -1 3486 925.094)"/><path d="M3520.23 923.7 3497 887" stroke="#7F7F7F" stroke-width="5.72917" stroke-linecap="round" stroke-linejoin="miter" stroke-miterlimit="8" stroke-opacity="1" fill="none" fill-rule="evenodd"/><path d="M0 0 8.79423 23.0733" stroke="#7F7F7F" stroke-width="5.72917" stroke-linecap="round" stroke-linejoin="miter" stroke-miterlimit="8" stroke-opacity="1" fill="none" fill-rule="evenodd" transform="matrix(-1 0 0 1 3528.79 901)"/><path d="M3540.95 911.84 3529 901" stroke="#7F7F7F" stroke-width="5.72917" stroke-linecap="round" stroke-linejoin="miter" stroke-miterlimit="8" stroke-opacity="1" fill="none" fill-rule="evenodd"/><path d="M0 0 11.5009 7.28425" stroke="#7F7F7F" stroke-width="5.72917" stroke-linecap="round" stroke-linejoin="miter" stroke-miterlimit="8" stroke-opacity="1" fill="none" fill-rule="evenodd" transform="matrix(-1 0 0 1 3559.5 918)"/><path d="M3579.7 926.254 3570 899" stroke="#7F7F7F" stroke-width="5.72917" stroke-linecap="round" stroke-linejoin="miter" stroke-miterlimit="8" stroke-opacity="1" fill="none" fill-rule="evenodd"/><path d="M0 0 10.8242 17.1824" stroke="#7F7F7F" stroke-width="5.72917" stroke-linecap="round" stroke-linejoin="miter" stroke-miterlimit="8" stroke-opacity="1" fill="none" fill-rule="evenodd" transform="matrix(-1 0 0 1 3569.82 901)"/><path d="M0 0 10.8242 38.094" stroke="#7F7F7F" stroke-width="5.72917" stroke-linecap="round" stroke-linejoin="miter" stroke-miterlimit="8" stroke-opacity="1" fill="none" fill-rule="evenodd" transform="matrix(1 0 0 -1 3589 926.094)"/><path d="M3616.01 913.86 3600 888" stroke="#7F7F7F" stroke-width="5.72917" stroke-linecap="round" stroke-linejoin="miter" stroke-miterlimit="8" stroke-opacity="1" fill="none" fill-rule="evenodd"/><path d="M0 0 16.0103 12.2335" stroke="#7F7F7F" stroke-width="5.72917" stroke-linecap="round" stroke-linejoin="miter" stroke-miterlimit="8" stroke-opacity="1" fill="none" fill-rule="evenodd" transform="matrix(-1 0 0 1 3632.01 902)"/><path d="M3642.82 926.467 3632 902" stroke="#7F7F7F" stroke-width="5.72917" stroke-linecap="round" stroke-linejoin="miter" stroke-miterlimit="8" stroke-opacity="1" fill="none" fill-rule="evenodd"/><path d="M0 0 10.8242 38.094" stroke="#7F7F7F" stroke-width="5.72917" stroke-linecap="round" stroke-linejoin="miter" stroke-miterlimit="8" stroke-opacity="1" fill="none" fill-rule="evenodd" transform="matrix(1 0 0 -1 3389 1016.09)"/><path d="M3415.01 1003.86 3399 978" stroke="#7F7F7F" stroke-width="5.72917" stroke-linecap="round" stroke-linejoin="miter" stroke-miterlimit="8" stroke-opacity="1" fill="none" fill-rule="evenodd"/><path d="M0 0 16.0103 12.2335" stroke="#7F7F7F" stroke-width="5.72917" stroke-linecap="round" stroke-linejoin="miter" stroke-miterlimit="8" stroke-opacity="1" fill="none" fill-rule="evenodd" transform="matrix(-1 0 0 1 3431.01 991)"/><path d="M3441.82 1015.47 3431 991" stroke="#7F7F7F" stroke-width="5.72917" stroke-linecap="round" stroke-linejoin="miter" stroke-miterlimit="8" stroke-opacity="1" fill="none" fill-rule="evenodd"/><path d="M0 0 16.0103 12.2335" stroke="#7F7F7F" stroke-width="5.72917" stroke-linecap="round" stroke-linejoin="miter" stroke-miterlimit="8" stroke-opacity="1" fill="none" fill-rule="evenodd" transform="matrix(-1 0 0 1 3458.01 1004)"/><path d="M0 0 5.18638 25.8601" stroke="#7F7F7F" stroke-width="5.72917" stroke-linecap="round" stroke-linejoin="miter" stroke-miterlimit="8" stroke-opacity="1" fill="none" fill-rule="evenodd" transform="matrix(-1 0 0 1 3463.19 978)"/><path d="M3473.82 1017.49 3463 978" stroke="#7F7F7F" stroke-width="5.72917" stroke-linecap="round" stroke-linejoin="miter" stroke-miterlimit="8" stroke-opacity="1" fill="none" fill-rule="evenodd"/><path d="M0 0 10.8242 38.094" stroke="#7F7F7F" stroke-width="5.72917" stroke-linecap="round" stroke-linejoin="miter" stroke-miterlimit="8" stroke-opacity="1" fill="none" fill-rule="evenodd" transform="matrix(1 0 0 -1 3485 1017.09)"/><path d="M3519.23 1015.7 3496 979" stroke="#7F7F7F" stroke-width="5.72917" stroke-linecap="round" stroke-linejoin="miter" stroke-miterlimit="8" stroke-opacity="1" fill="none" fill-rule="evenodd"/><path d="M0 0 8.79423 23.0733" stroke="#7F7F7F" stroke-width="5.72917" stroke-linecap="round" stroke-linejoin="miter" stroke-miterlimit="8" stroke-opacity="1" fill="none" fill-rule="evenodd" transform="matrix(-1 0 0 1 3527.79 993)"/><path d="M3539.95 1003.84 3528 993" stroke="#7F7F7F" stroke-width="5.72917" stroke-linecap="round" stroke-linejoin="miter" stroke-miterlimit="8" stroke-opacity="1" fill="none" fill-rule="evenodd"/><path d="M0 0 11.5009 7.28425" stroke="#7F7F7F" stroke-width="5.72917" stroke-linecap="round" stroke-linejoin="miter" stroke-miterlimit="8" stroke-opacity="1" fill="none" fill-rule="evenodd" transform="matrix(-1 0 0 1 3557.5 1010)"/><path d="M3578.7 1018.25 3569 991" stroke="#7F7F7F" stroke-width="5.72917" stroke-linecap="round" stroke-linejoin="miter" stroke-miterlimit="8" stroke-opacity="1" fill="none" fill-rule="evenodd"/><path d="M0 0 10.8242 17.1824" stroke="#7F7F7F" stroke-width="5.72917" stroke-linecap="round" stroke-linejoin="miter" stroke-miterlimit="8" stroke-opacity="1" fill="none" fill-rule="evenodd" transform="matrix(-1 0 0 1 3568.82 993)"/><path d="M0 0 10.8242 38.094" stroke="#7F7F7F" stroke-width="5.72917" stroke-linecap="round" stroke-linejoin="miter" stroke-miterlimit="8" stroke-opacity="1" fill="none" fill-rule="evenodd" transform="matrix(1 0 0 -1 3588 1019.09)"/><path d="M3615.01 1006.86 3599 981" stroke="#7F7F7F" stroke-width="5.72917" stroke-linecap="round" stroke-linejoin="miter" stroke-miterlimit="8" stroke-opacity="1" fill="none" fill-rule="evenodd"/><path d="M0 0 16.0103 12.2335" stroke="#7F7F7F" stroke-width="5.72917" stroke-linecap="round" stroke-linejoin="miter" stroke-miterlimit="8" stroke-opacity="1" fill="none" fill-rule="evenodd" transform="matrix(-1 0 0 1 3631.01 994)"/><path d="M3641.82 1018.47 3631 994" stroke="#7F7F7F" stroke-width="5.72917" stroke-linecap="round" stroke-linejoin="miter" stroke-miterlimit="8" stroke-opacity="1" fill="none" fill-rule="evenodd"/></g></g></svg>