<svg width="591" height="587" xmlns="http://www.w3.org/2000/svg" xmlns:xlink="http://www.w3.org/1999/xlink" xml:space="preserve" overflow="hidden"><defs><linearGradient x1="2438" y1="1500" x2="1857" y2="917.002" gradientUnits="userSpaceOnUse" spreadMethod="reflect" id="fill0"><stop offset="0" stop-color="#FD7E13" stop-opacity="1"/><stop offset="0.26" stop-color="#007BFF" stop-opacity="1"/><stop offset="0.83" stop-color="#0DA50A" stop-opacity="1"/><stop offset="1" stop-color="#3B7D23" stop-opacity="1"/></linearGradient></defs><g transform="translate(-1851 -916)"><g><path d="M1856 1062.93C1856 982.888 1920.89 918 2000.93 918L2294.07 918C2374.11 918 2439 982.888 2439 1062.93L2439 1354.07C2439 1434.11 2374.11 1499 2294.07 1499L2000.93 1499C1920.89 1499 1856 1434.11 1856 1354.07Z" fill="url(#fill0)" fill-rule="evenodd"/><path d="M1894 1081.97C1894 1012.4 1950.4 956 2019.97 956L2275.03 956C2344.6 956 2401 1012.4 2401 1081.97L2401 1335.03C2401 1404.6 2344.6 1461 2275.03 1461L2019.97 1461C1950.4 1461 1894 1404.6 1894 1335.03Z" fill="#000000" fill-rule="evenodd" fill-opacity="1"/><path d="M1970 1086.78C1970 1071.99 1981.99 1060 1996.78 1060L2015.22 1060C2030.01 1060 2042 1071.99 2042 1086.78L2042 1358.22C2042 1373.01 2030.01 1385 2015.22 1385L1996.78 1385C1981.99 1385 1970 1373.01 1970 1358.22Z" fill="#007BFF" fill-rule="evenodd" fill-opacity="1"/><path d="M2256 1132.16C2256 1117.16 2268.16 1105 2283.16 1105L2301.84 1105C2316.84 1105 2329 1117.16 2329 1132.16L2329 1357.84C2329 1372.84 2316.84 1385 2301.84 1385L2283.16 1385C2268.16 1385 2256 1372.84 2256 1357.84Z" fill="#F97315" fill-rule="evenodd" fill-opacity="1"/><path d="M2113 1032.78C2113 1017.99 2124.99 1006 2139.78 1006L2158.22 1006C2173.01 1006 2185 1017.99 2185 1032.78L2185 1358.22C2185 1373.01 2173.01 1385 2158.22 1385L2139.78 1385C2124.99 1385 2113 1373.01 2113 1358.22Z" fill="#20B556" fill-rule="evenodd" fill-opacity="1"/></g></g></svg>