<svg width="994" height="1064" xmlns="http://www.w3.org/2000/svg" xmlns:xlink="http://www.w3.org/1999/xlink" xml:space="preserve" overflow="hidden"><g transform="translate(-1045 -815)"><g><path d="M1124.95 1320.5 1848.05 1320.5 1852.28 1332.77C1863.47 1370.98 1869.5 1411.61 1869.5 1453.73 1869.5 1678.38 1698.03 1860.5 1486.5 1860.5 1274.97 1860.5 1103.5 1678.38 1103.5 1453.73 1103.5 1411.61 1109.53 1370.98 1120.72 1332.77L1124.95 1320.5Z" stroke="#DC8539" stroke-width="36.6667" stroke-linecap="butt" stroke-linejoin="miter" stroke-miterlimit="8" stroke-opacity="1" fill="none" fill-rule="evenodd"/><text fill="#FBEAC3" fill-opacity="1" font-family="Arial Rounded MT Bold,Arial Rounded MT Bold_MSFontService,sans-serif" font-style="normal" font-variant="normal" font-weight="700" font-stretch="normal" font-size="248" text-anchor="start" direction="ltr" writing-mode="lr-tb" unicode-bidi="normal" text-decoration="none" transform="matrix(1 0 0 1 1197.25 1620)">MDH</text><path d="M1480 1080.5C1620.69 1080.5 1738.08 1179.96 1765.22 1312.17L1766.5 1320.5 1193.5 1320.5 1194.78 1312.17C1221.92 1179.96 1339.31 1080.5 1480 1080.5Z" stroke="#DC8539" stroke-width="36.6667" stroke-linecap="butt" stroke-linejoin="miter" stroke-miterlimit="8" stroke-opacity="1" fill="none" fill-rule="evenodd"/><path d="M1478.5 834.5 1478.5 992.428" stroke="#DC8539" stroke-width="36.6667" stroke-linecap="round" stroke-linejoin="miter" stroke-miterlimit="8" stroke-opacity="1" fill="none" fill-rule="evenodd"/><path d="M0 0 66.3927 125.714" stroke="#DC8539" stroke-width="36.6667" stroke-linecap="round" stroke-linejoin="miter" stroke-miterlimit="8" stroke-opacity="1" fill="none" fill-rule="evenodd" transform="matrix(-1 0 0 1 1711.89 898.5)"/><path d="M0 0 121.301 77.7853" stroke="#DC8539" stroke-width="36.6667" stroke-linecap="round" stroke-linejoin="miter" stroke-miterlimit="8" stroke-opacity="1" fill="none" fill-rule="evenodd" transform="matrix(-1 0 0 1 1889.8 1062.5)"/><path d="M0 0 83.3871 26.5173" stroke="#DC8539" stroke-width="36.6667" stroke-linecap="round" stroke-linejoin="miter" stroke-miterlimit="8" stroke-opacity="1" fill="none" fill-rule="evenodd" transform="matrix(-1 0 0 1 1891.89 1191.5)"/><path d="M0 0 56.6467 62.6011" stroke="#DC8539" stroke-width="36.6667" stroke-linecap="round" stroke-linejoin="miter" stroke-miterlimit="8" stroke-opacity="1" fill="none" fill-rule="evenodd" transform="matrix(-1 0 0 1 1769.15 1012.5)"/><path d="M0 0 16.8927 79.0019" stroke="#DC8539" stroke-width="36.6667" stroke-linecap="round" stroke-linejoin="miter" stroke-miterlimit="8" stroke-opacity="1" fill="none" fill-rule="evenodd" transform="matrix(-1 0 0 1 1584.39 913.5)"/><path d="M1250.5 898.5 1316.89 1024.21" stroke="#DC8539" stroke-width="36.6667" stroke-linecap="round" stroke-linejoin="miter" stroke-miterlimit="8" stroke-opacity="1" fill="none" fill-rule="evenodd"/><path d="M1072.5 1062.5 1193.8 1140.29" stroke="#DC8539" stroke-width="36.6667" stroke-linecap="round" stroke-linejoin="miter" stroke-miterlimit="8" stroke-opacity="1" fill="none" fill-rule="evenodd"/><path d="M1070.5 1191.5 1153.89 1218.02" stroke="#DC8539" stroke-width="36.6667" stroke-linecap="round" stroke-linejoin="miter" stroke-miterlimit="8" stroke-opacity="1" fill="none" fill-rule="evenodd"/><path d="M1192.5 1012.5 1249.15 1075.1" stroke="#DC8539" stroke-width="36.6667" stroke-linecap="round" stroke-linejoin="miter" stroke-miterlimit="8" stroke-opacity="1" fill="none" fill-rule="evenodd"/><path d="M1378.5 913.5 1395.39 992.502" stroke="#DC8539" stroke-width="36.6667" stroke-linecap="round" stroke-linejoin="miter" stroke-miterlimit="8" stroke-opacity="1" fill="none" fill-rule="evenodd"/><path d="M1866.01 1401.5 2016.8 1401.5 2019.5 1433.22C2019.5 1551.71 1938.28 1650.56 1830.3 1673.43L1823.5 1674.5 1823.5 1648 1823.62 1647.78C1853.04 1590.2 1869.74 1524.2 1869.74 1454.06L1866.01 1401.5Z" stroke="#DC8539" stroke-width="36.6667" stroke-linecap="butt" stroke-linejoin="miter" stroke-miterlimit="8" stroke-opacity="1" fill="none" fill-rule="evenodd"/></g></g></svg>