<svg width="431" height="572" xmlns="http://www.w3.org/2000/svg" xmlns:xlink="http://www.w3.org/1999/xlink" xml:space="preserve" overflow="hidden"><g transform="translate(-2997 -1320)"><g><path d="M3302.17 1881 3090.83 1881C3062.76 1881 3040 1858.24 3040 1830.17L3040 1576 3353 1576 3353 1830.17C3353 1858.24 3330.24 1881 3302.17 1881Z" stroke="#8ED973" stroke-width="19.9079" stroke-linecap="butt" stroke-linejoin="miter" stroke-miterlimit="8" stroke-opacity="1" fill="none" fill-rule="evenodd"/><path d="M3276.26 1756.4C3260.86 1800.45 3212.66 1823.67 3168.6 1808.26 3144.56 1799.85 3125.59 1781.04 3116.98 1757.07" stroke="#8ED973" stroke-width="19.9079" stroke-linecap="round" stroke-linejoin="miter" stroke-miterlimit="8" stroke-opacity="1" fill="none" fill-rule="evenodd"/><path d="M3143.5 1680.5C3143.5 1665.59 3150.89 1653.5 3160 1653.5 3169.11 1653.5 3176.5 1665.59 3176.5 1680.5 3176.5 1695.41 3169.11 1707.5 3160 1707.5 3150.89 1707.5 3143.5 1695.41 3143.5 1680.5Z" stroke="#8ED973" stroke-width="6.875" stroke-linecap="butt" stroke-linejoin="miter" stroke-miterlimit="8" stroke-opacity="1" fill="#8ED973" fill-rule="evenodd" fill-opacity="1"/><path d="M3218.5 1680.5C3218.5 1665.59 3225.89 1653.5 3235 1653.5 3244.11 1653.5 3251.5 1665.59 3251.5 1680.5 3251.5 1695.41 3244.11 1707.5 3235 1707.5 3225.89 1707.5 3218.5 1695.41 3218.5 1680.5Z" stroke="#8ED973" stroke-width="6.875" stroke-linecap="butt" stroke-linejoin="miter" stroke-miterlimit="8" stroke-opacity="1" fill="#8ED973" fill-rule="evenodd" fill-opacity="1"/><path d="M3416 1645 3416 1758C3416 1775.12 3402.12 1789 3385 1789L3354 1789 3354 1614 3385 1614C3402.12 1614 3416 1627.88 3416 1645Z" stroke="#8ED973" stroke-width="19.9079" stroke-linecap="butt" stroke-linejoin="miter" stroke-miterlimit="8" stroke-opacity="1" fill="none" fill-rule="evenodd"/><path d="M3195.68 1436.75C3260.01 1436.75 3313.69 1481.93 3326.1 1541.97L3326.68 1545.76 3064.68 1545.76 3065.27 1541.97C3077.68 1481.93 3131.35 1436.75 3195.68 1436.75Z" stroke="#FFD579" stroke-width="19.9079" stroke-linecap="butt" stroke-linejoin="miter" stroke-miterlimit="8" stroke-opacity="1" fill="none" fill-rule="evenodd"/><path d="M3194.31 1331.75 3194.31 1403.75" stroke="#FFD579" stroke-width="19.9079" stroke-linecap="round" stroke-linejoin="miter" stroke-miterlimit="8" stroke-opacity="1" fill="none" fill-rule="evenodd"/><path d="M0.179581 0.0256534 30.1798 58.0257" stroke="#FFD579" stroke-width="19.9079" stroke-linecap="round" stroke-linejoin="miter" stroke-miterlimit="8" stroke-opacity="1" fill="none" fill-rule="evenodd" transform="matrix(-1 1.22465e-16 1.22465e-16 1 3302 1361)"/><path d="M0.217143 0.0759761 55.2174 36.0761" stroke="#FFD579" stroke-width="19.9079" stroke-linecap="round" stroke-linejoin="miter" stroke-miterlimit="8" stroke-opacity="1" fill="none" fill-rule="evenodd" transform="matrix(-1 1.22465e-16 1.22465e-16 1 3383 1436)"/><path d="M0.230615 0.112931 38.2304 12.113" stroke="#FFD579" stroke-width="19.9079" stroke-linecap="round" stroke-linejoin="miter" stroke-miterlimit="8" stroke-opacity="1" fill="none" fill-rule="evenodd" transform="matrix(-1 1.22465e-16 1.22465e-16 1 3384 1495)"/><path d="M0.203088 0.0607154 26.2029 29.0606" stroke="#FFD579" stroke-width="19.9079" stroke-linecap="round" stroke-linejoin="miter" stroke-miterlimit="8" stroke-opacity="1" fill="none" fill-rule="evenodd" transform="matrix(-1 1.22465e-16 1.22465e-16 1 3328 1413)"/><path d="M0.16375 0.0298618 8.16397 36.0296" stroke="#FFD579" stroke-width="19.9079" stroke-linecap="round" stroke-linejoin="miter" stroke-miterlimit="8" stroke-opacity="1" fill="none" fill-rule="evenodd" transform="matrix(-1 1.22465e-16 1.22465e-16 1 3244 1368)"/><path d="M3090.68 1360.75 3121.68 1418.75" stroke="#FFD579" stroke-width="19.9079" stroke-linecap="round" stroke-linejoin="miter" stroke-miterlimit="8" stroke-opacity="1" fill="none" fill-rule="evenodd"/><path d="M3009.69 1435.75 3064.69 1471.75" stroke="#FFD579" stroke-width="19.9079" stroke-linecap="round" stroke-linejoin="miter" stroke-miterlimit="8" stroke-opacity="1" fill="none" fill-rule="evenodd"/><path d="M3008.68 1494.76 3046.68 1506.76" stroke="#FFD579" stroke-width="19.9079" stroke-linecap="round" stroke-linejoin="miter" stroke-miterlimit="8" stroke-opacity="1" fill="none" fill-rule="evenodd"/><path d="M3064.68 1412.75 3090.68 1441.75" stroke="#FFD579" stroke-width="19.9079" stroke-linecap="round" stroke-linejoin="miter" stroke-miterlimit="8" stroke-opacity="1" fill="none" fill-rule="evenodd"/><path d="M3149.71 1367.75 3156.71 1403.75" stroke="#FFD579" stroke-width="19.9079" stroke-linecap="round" stroke-linejoin="miter" stroke-miterlimit="8" stroke-opacity="1" fill="none" fill-rule="evenodd"/></g></g></svg>